<svg width="13" height="13" viewBox="0 0 13 13" fill="none" xmlns="http://www.w3.org/2000/svg">
<path fill-rule="evenodd" clip-rule="evenodd" d="M0.374045 8.65209C1.26514 11.18 3.67132 13 6.5 13C10.0839 13 13 10.0839 13 6.5C13 5.16632 12.5952 3.92541 11.9033 2.89191C11.768 2.68982 11.6208 2.49895 11.4666 2.31518C11.4303 2.27203 11.3921 2.23109 11.3538 2.19009C11.336 2.17101 11.3182 2.15192 11.3005 2.13259C11.1942 2.01559 11.0843 1.90155 10.9702 1.79282C10.8981 1.72486 10.8249 1.6575 10.7498 1.5925C10.6381 1.49559 10.5223 1.404 10.4047 1.31536C10.3829 1.29887 10.3612 1.28217 10.3396 1.26548C10.2867 1.22477 10.2339 1.18408 10.179 1.14636C9.98932 1.01577 9.79491 0.892864 9.59282 0.783545C9.56563 0.768957 9.53751 0.756044 9.50941 0.743134C9.48742 0.733035 9.46544 0.722939 9.44391 0.712045C9.27668 0.626955 9.1065 0.546591 8.93218 0.476273C8.87169 0.4518 8.80976 0.429853 8.74779 0.407894C8.73046 0.401752 8.71313 0.395609 8.69582 0.389409C8.54159 0.333864 8.38618 0.283636 8.22782 0.239909C8.14509 0.217455 8.06236 0.195591 7.97905 0.176091C7.81123 0.137091 7.64105 0.106364 7.46909 0.0803636C7.43985 0.0761528 7.41079 0.0713863 7.3817 0.066614C7.33731 0.0593319 7.29284 0.0520364 7.2475 0.0466818C7.00109 0.0183182 6.75173 0 6.5 0C2.91614 0 0 2.91614 0 6.5C0 6.70032 0.0124091 6.89827 0.0301364 7.09445C0.0386363 7.18445 0.05179 7.27445 0.0649438 7.36445C0.0673355 7.38082 0.0697272 7.39718 0.0720909 7.41355C0.0736632 7.42463 0.0752239 7.43572 0.0767843 7.44681C0.0863668 7.51489 0.0959406 7.58291 0.108136 7.6505C0.134136 7.79232 0.164864 7.93295 0.200318 8.07359L0.226909 8.17582C0.270045 8.33536 0.3185 8.49432 0.374045 8.65209ZM7.09091 5.90909H10.0455C10.3716 5.90909 10.6364 6.17323 10.6364 6.5C10.6364 6.82677 10.3716 7.09091 10.0455 7.09091H7.09091V10.0455C7.09091 10.3722 6.82618 10.6364 6.5 10.6364C6.17382 10.6364 5.90909 10.3722 5.90909 10.0455V7.09091H2.95455C2.62836 7.09091 2.36364 6.82677 2.36364 6.5C2.36364 6.17323 2.62836 5.90909 2.95455 5.90909H5.90909V2.95455C5.90909 2.62777 6.17382 2.36364 6.5 2.36364C6.82618 2.36364 7.09091 2.62777 7.09091 2.95455V5.90909Z" fill="white"/>
</svg>
