<svg width="12" height="12" viewBox="0 0 12 12" fill="none" xmlns="http://www.w3.org/2000/svg">
<path d="M11.04 6.74405H10.08C9.792 6.74405 9.6 6.93605 9.6 7.22405V9.38405C9.6 9.52805 9.504 9.62405 9.36 9.62405H2.16C2.016 9.62405 1.92 9.52805 1.92 9.38405V2.18405C1.92 2.04005 2.016 1.94405 2.16 1.94405H4.32C4.608 1.94405 4.8 1.75205 4.8 1.46405V0.504048C4.8 0.216048 4.608 0.0240479 4.32 0.0240479H0.48C0.192 0.0240479 0 0.216048 0 0.504048V11.064C0 11.352 0.192 11.544 0.48 11.544H11.04C11.328 11.544 11.52 11.352 11.52 11.064V7.22405C11.52 6.93605 11.328 6.74405 11.04 6.74405Z" fill="white"/>
<path d="M11.0399 0.0240479H7.19994C6.91194 0.0240479 6.71994 0.216048 6.71994 0.504048V1.46405C6.71994 1.75205 6.91194 1.94405 7.19994 1.94405H7.67994C7.87194 1.94405 8.01594 2.18405 7.87194 2.37605L4.03194 6.21605C3.83994 6.40805 3.83994 6.69605 4.03194 6.88805L4.70394 7.56005C4.89594 7.75205 5.18394 7.75205 5.37594 7.56005L9.21594 3.72005C9.35994 3.57605 9.64794 3.67205 9.64794 3.91205V4.39205C9.64794 4.68005 9.83994 4.87205 10.1279 4.87205H11.0879C11.3759 4.87205 11.5679 4.68005 11.5679 4.39205V0.552048C11.5199 0.216048 11.3279 0.0240479 11.0399 0.0240479V0.0240479Z" fill="white"/>
</svg>
