<svg width="20" height="20" viewBox="0 0 20 20" fill="none" xmlns="http://www.w3.org/2000/svg">
<path fill-rule="evenodd" clip-rule="evenodd" d="M16.4648 0.883789L17.3486 0L20 2.65137L19.1162 3.53578L16.4648 0.883789ZM15.5811 1.76758L14.6973 2.65137L17.3486 5.30336L18.2324 4.41957L15.5811 1.76758ZM17.5 6.91953V17.5C17.5 18.8806 16.3806 20 15 20H2.5C1.11937 20 0 18.8806 0 17.5V5C0 3.61937 1.11937 2.5 2.5 2.5H13.0798L10.5811 5H2.5V17.5H15V9.42016L17.5 6.91953ZM5.85938 11.4917L8.51074 14.1431L16.4648 6.18773L13.8135 3.53574L5.85938 11.4917ZM7.5 15H5V12.5L7.5 15Z" fill="#202020"/>
</svg>
