<svg width="20" height="18" viewBox="0 0 20 18" fill="none" xmlns="http://www.w3.org/2000/svg">
<path fill-rule="evenodd" clip-rule="evenodd" d="M0.772888 13.4375C0.772888 9.48058 4.248 9.48143 5.01916 8.44681L5.10741 7.97501C4.02397 7.4257 3.25914 6.10219 3.25914 4.55381C3.25914 2.51412 4.58596 0.860352 6.22226 0.860352C7.51074 0.860352 8.60406 1.88754 9.0121 3.31922C7.37301 3.84008 6.16053 5.61731 6.16053 7.72995C6.16053 9.18443 6.73392 10.5217 7.67524 11.3713C7.52408 11.4488 7.35595 11.5279 7.21138 11.5956C6.45229 11.9517 5.4001 12.4467 4.64101 13.4375H0.772888Z" fill="#202020"/>
<path fill-rule="evenodd" clip-rule="evenodd" d="M10.0384 16.6134V16.6132H9.96101H4.55048C4.55048 12.6565 8.02559 12.6576 8.79675 11.623L8.885 11.1512C7.80156 10.6018 7.03673 9.27834 7.03673 7.72995C7.03673 5.69027 8.36354 4.0365 9.99985 4.0365C11.6362 4.0365 12.963 5.69027 12.963 7.72995C12.963 9.265 12.2117 10.5806 11.1427 11.1382L11.2432 11.6746C12.0893 12.6591 15.4488 12.7233 15.4488 16.6134H10.0384Z" fill="#202020"/>
<path fill-rule="evenodd" clip-rule="evenodd" d="M15.3584 13.4378C14.5991 12.4471 13.5469 11.952 12.7878 11.5959C12.6384 11.5258 12.4728 11.4481 12.3248 11.3721C13.2652 10.5214 13.8393 9.18122 13.8393 7.73003C13.8393 5.61764 12.6273 3.84074 10.9886 3.31972C11.3964 1.88778 12.4897 0.860596 13.7784 0.860596C15.4149 0.860596 16.7415 2.51437 16.7415 4.55405C16.7415 6.08909 15.9903 7.40458 14.9213 7.96234L15.0218 8.49873C15.8679 9.48302 19.2274 9.54712 19.2274 13.4378H15.3584Z" fill="#202020"/>
</svg>
