<svg width="19" height="18" viewBox="0 0 19 18" fill="none" xmlns="http://www.w3.org/2000/svg">
<path d="M10.214 1.08688C5.99402 1.08688 2.56082 4.65212 2.56135 9.01213C2.55816 9.08137 2.51965 10.2356 2.83601 11.4786L1.80512 10.8546C1.54905 10.7001 1.22287 10.7898 1.07252 11.0552C0.924303 11.32 1.01037 11.6607 1.26563 11.8152L3.68149 13.2778C3.68654 13.2805 3.69158 13.2814 3.69637 13.2838C3.72213 13.2982 3.74843 13.3087 3.77632 13.3186C3.79518 13.3255 3.81351 13.3327 3.83237 13.3374C3.85548 13.3426 3.87832 13.3443 3.90196 13.3465C3.91843 13.3481 3.9349 13.3534 3.95137 13.3534C3.96066 13.3534 3.96943 13.3501 3.97899 13.3495C3.98802 13.3492 3.99573 13.3514 4.00476 13.3506C4.01804 13.3492 4.02999 13.3434 4.04301 13.3412C4.06877 13.3365 4.09321 13.3307 4.11791 13.3225C4.13863 13.3153 4.15908 13.3067 4.17901 13.2968C4.20132 13.2858 4.2223 13.2736 4.24302 13.2593C4.26188 13.2466 4.27994 13.2328 4.29694 13.2179C4.3158 13.2014 4.33254 13.1834 4.34927 13.1641C4.36494 13.1462 4.37849 13.1274 4.39151 13.1076C4.39868 13.0965 4.40824 13.0885 4.41462 13.0772C4.4194 13.0687 4.4194 13.0587 4.42338 13.0502C4.43055 13.035 4.44171 13.0218 4.44808 13.0055L5.40912 10.5343C5.51988 10.2496 5.3876 9.9255 5.11374 9.81047C4.83935 9.69626 4.52751 9.83309 4.41674 10.1178L3.92321 11.3867C3.59383 10.2427 3.63129 9.0673 3.63235 9.03502C3.63235 5.26564 6.5853 2.19916 10.2143 2.19916C13.8435 2.19916 16.7962 5.26564 16.7962 9.03502C16.7962 12.8038 13.8435 15.8703 10.2143 15.8703C9.91837 15.8703 9.67877 16.1194 9.67877 16.4265C9.67877 16.7335 9.9181 16.9826 10.2143 16.9826C14.4345 16.9826 17.8675 13.4174 17.8675 9.03502C17.8669 4.65212 14.434 1.08688 10.214 1.08688V1.08688Z" fill="#7D86A9" stroke="#7D86A9" stroke-width="0.566667"/>
<path d="M10.0089 10.104C10.0629 10.1272 10.1197 10.1354 10.1773 10.1396C10.1893 10.1404 10.201 10.147 10.2129 10.147C10.2756 10.147 10.3365 10.1321 10.3946 10.1101C10.4108 10.104 10.426 10.0952 10.4416 10.0872C10.486 10.0651 10.5269 10.037 10.5646 10.0025C10.5729 9.99502 10.5838 9.99226 10.592 9.98371L13.9354 6.51144C14.1447 6.29406 14.1447 5.94233 13.9354 5.72495C13.7264 5.50758 13.3877 5.50758 13.1781 5.72495L10.0884 8.93351L7.3155 7.72744C7.04111 7.60854 6.72874 7.74206 6.61425 8.02564C6.50004 8.30895 6.62886 8.63475 6.90113 8.75337L10.0058 10.1034C10.0068 10.1037 10.0079 10.1037 10.0089 10.104Z" fill="#7D86A9" stroke="#7D86A9" stroke-width="0.566667"/>
</svg>
