<svg width="15" height="15" viewBox="0 0 15 15" fill="none" xmlns="http://www.w3.org/2000/svg">
<path d="M5.42429 8.26117C5.42429 8.07359 5.26864 7.92163 5.07659 7.92163H3.86326C3.67143 7.92163 3.51575 8.07359 3.51575 8.26117V9.44706C3.51575 9.63488 3.67143 9.78691 3.86326 9.78691H5.07659C5.26864 9.78691 5.42429 9.63488 5.42429 9.44706V8.26117Z" fill="#7D86A9"/>
<path d="M8.45658 8.26117C8.45658 8.07359 8.3009 7.92163 8.10922 7.92163H6.89573C6.7039 7.92163 6.54822 8.07359 6.54822 8.26117V9.44706C6.54822 9.63488 6.7039 9.78691 6.89573 9.78691H8.10922C8.3009 9.78691 8.45658 9.63488 8.45658 9.44706V8.26117Z" fill="#7D86A9"/>
<path d="M11.4891 8.26117C11.4891 8.07359 11.3334 7.92163 11.1415 7.92163H9.9282C9.73615 7.92163 9.58051 8.07359 9.58051 8.26117V9.44706C9.58051 9.63488 9.73615 9.78691 9.9282 9.78691H11.1415C11.3334 9.78691 11.4891 9.63488 11.4891 9.44706V8.26117Z" fill="#7D86A9"/>
<path d="M5.42429 11.2255C5.42429 11.0376 5.26864 10.8857 5.07659 10.8857H3.86326C3.67143 10.8857 3.51575 11.0376 3.51575 11.2255V12.4111C3.51575 12.5988 3.67143 12.7508 3.86326 12.7508H5.07659C5.26864 12.7508 5.42429 12.5988 5.42429 12.4111V11.2255Z" fill="#7D86A9"/>
<path d="M8.45658 11.2255C8.45658 11.0376 8.3009 10.8857 8.10922 10.8857H6.89573C6.7039 10.8857 6.54822 11.0376 6.54822 11.2255V12.4111C6.54822 12.5988 6.7039 12.7508 6.89573 12.7508H8.10922C8.3009 12.7508 8.45658 12.5988 8.45658 12.4111V11.2255Z" fill="#7D86A9"/>
<path d="M11.4891 11.2255C11.4891 11.0376 11.3334 10.8857 11.1417 10.8857H9.9282C9.73615 10.8857 9.58051 11.0376 9.58051 11.2255V12.4111C9.58051 12.5988 9.73615 12.7508 9.9282 12.7508H11.1417C11.3334 12.7508 11.4891 12.5988 11.4891 12.4111V11.2255Z" fill="#7D86A9"/>
<path fill-rule="evenodd" clip-rule="evenodd" d="M13.6586 3.47874V1.66739C14.3905 1.68896 14.9919 2.28095 14.9919 3.00859V13.624C14.9919 14.364 14.376 14.9741 13.6188 14.9741H1.38594C0.627565 14.9741 0.0128784 14.3653 0.0128784 13.624V3.00859C0.0128784 2.28095 0.614291 1.68896 1.34618 1.66739V3.47874C1.34618 4.29745 2.02561 4.95721 2.863 4.95721H3.82009C4.65745 4.95721 5.34588 4.29745 5.34588 3.47874V1.66089H9.65885V3.47874C9.65885 4.29745 10.3473 4.95721 11.1848 4.95721H12.1417C12.9791 4.95721 13.6586 4.29745 13.6586 3.47874ZM12.6205 13.5432C12.9484 13.5432 13.2141 13.2833 13.2141 12.9629L13.2141 7.47969C13.2141 7.1592 12.9484 6.89929 12.6205 6.89929H2.35806C2.03016 6.89929 1.76446 7.1592 1.76446 7.47969V12.9629C1.76446 13.2833 2.03019 13.5432 2.35806 13.5432H12.6205Z" fill="#7D86A9"/>
<path d="M2.85965 3.98604H3.80615C4.09344 3.98604 4.32638 3.75868 4.32638 3.47785V0.508374C4.32638 0.227515 4.09344 0 3.80615 0H2.85965C2.57232 0 2.33942 0.227515 2.33942 0.508374V3.47785C2.33942 3.75868 2.57232 3.98604 2.85965 3.98604Z" fill="#7D86A9"/>
<path d="M11.1727 3.98604H12.1192C12.4063 3.98604 12.6392 3.75868 12.6392 3.47785V0.508374C12.6392 0.227515 12.4063 0 12.1192 0H11.1727C10.8854 0 10.6525 0.227515 10.6525 0.508374V3.47785C10.6525 3.75868 10.8854 3.98604 11.1727 3.98604Z" fill="#7D86A9"/>
</svg>
