<svg width="20" height="17" viewBox="0 0 20 17" fill="none" xmlns="http://www.w3.org/2000/svg">
<path fill-rule="evenodd" clip-rule="evenodd" d="M0.0371094 16.6125V0H19.9189V16.6125H0.0371094ZM1.32822 15.2944H18.6278V1.31858H1.32822V15.2944Z" fill="#7D86A9"/>
<path d="M5.69045 7.80371L3.36823 10.2716V14.4359C3.36823 14.553 3.46134 14.6483 3.57623 14.6483H6.39578C6.51067 14.6483 6.60378 14.5532 6.60378 14.4359V8.04791L5.95356 7.80371H5.69045Z" fill="#7D86A9"/>
<path d="M11.4333 9.73901H8.614C8.49889 9.73901 8.40578 9.83411 8.40578 9.95144V14.4355C8.40578 14.5529 8.49889 14.6482 8.614 14.6482H11.4333C11.5482 14.6482 11.6413 14.5531 11.6413 14.4355V9.95121C11.6413 9.83411 11.5482 9.73901 11.4333 9.73901Z" fill="#7D86A9"/>
<path d="M15.5316 5.17099L15.0193 4.73389L13.1662 6.79845V14.4356C13.1662 14.5527 13.2593 14.648 13.3745 14.648H16.194C16.3089 14.648 16.402 14.5529 16.402 14.4356V5.24135C16.3905 5.24816 16.38 5.25655 16.3682 5.26268C16.2605 5.32033 16.1393 5.35074 16.0176 5.35074C15.8396 5.35096 15.6676 5.28719 15.5316 5.17099Z" fill="#7D86A9"/>
<path d="M2.67934 9.95328C2.78845 9.95328 2.89756 9.90948 2.97934 9.82278L5.63334 7.00224L10.2771 8.74726C10.4358 8.8065 10.6131 8.7627 10.7276 8.6356L15.0038 3.87169L16.0042 4.72593C16.0533 4.76769 16.1216 4.77495 16.178 4.74499C16.2342 4.71481 16.2676 4.65331 16.2618 4.58817L16.0449 2.11169C16.0373 2.02318 15.9607 1.95804 15.8742 1.96599L13.4491 2.18704C13.3858 2.19271 13.332 2.23719 13.3129 2.29915C13.3069 2.31958 13.3049 2.34068 13.3067 2.36134C13.3104 2.40309 13.3298 2.44258 13.3625 2.47027L14.3651 3.3261L10.3031 7.85149L5.66623 6.10897C5.51089 6.05109 5.33712 6.09195 5.22245 6.21314L2.37956 9.23407C2.22045 9.40338 2.22556 9.67209 2.39134 9.83458C2.47178 9.91379 2.57556 9.95328 2.67934 9.95328Z" fill="#7D86A9"/>
</svg>
