<svg width="20" height="18" viewBox="0 0 20 18" fill="none" xmlns="http://www.w3.org/2000/svg">
<path fill-rule="evenodd" clip-rule="evenodd" d="M0.0371094 16.6125V0H19.9189V16.6125H0.0371094ZM1.32822 15.2944H18.6278V1.31858H1.32822V15.2944Z" fill="#202020"/>
<path d="M5.69045 7.80369L3.36823 10.2715V14.4359C3.36823 14.553 3.46134 14.6483 3.57623 14.6483H6.39578C6.51067 14.6483 6.60378 14.5532 6.60378 14.4359V8.04789L5.95356 7.80369H5.69045Z" fill="#202020"/>
<path d="M11.4333 9.73912H8.614C8.49889 9.73912 8.40578 9.83421 8.40578 9.95155V14.4356C8.40578 14.553 8.49889 14.6483 8.614 14.6483H11.4333C11.5482 14.6483 11.6413 14.5532 11.6413 14.4356V9.95132C11.6413 9.83421 11.5482 9.73912 11.4333 9.73912Z" fill="#202020"/>
<path d="M15.5316 5.17106L15.0193 4.73396L13.1662 6.79852V14.4356C13.1662 14.5527 13.2593 14.6481 13.3745 14.6481H16.194C16.3089 14.6481 16.402 14.553 16.402 14.4356V5.24142C16.3905 5.24822 16.38 5.25662 16.3682 5.26275C16.2605 5.3204 16.1393 5.35081 16.0176 5.35081C15.8396 5.35103 15.6676 5.28726 15.5316 5.17106Z" fill="#202020"/>
<path d="M2.67934 9.95336C2.78845 9.95336 2.89756 9.90956 2.97934 9.82287L5.63334 7.00233L10.2771 8.74735C10.4358 8.80658 10.6131 8.76278 10.7276 8.63569L15.0038 3.87177L16.0042 4.72602C16.0533 4.76777 16.1216 4.77504 16.178 4.74508C16.2342 4.71489 16.2676 4.65339 16.2618 4.58826L16.0449 2.11177C16.0373 2.02326 15.9607 1.95813 15.8742 1.96607L13.4491 2.18712C13.3858 2.1928 13.332 2.23728 13.3129 2.29923C13.3069 2.31966 13.3049 2.34077 13.3067 2.36142C13.3104 2.40318 13.3298 2.44267 13.3625 2.47036L14.3651 3.32619L10.3031 7.85158L5.66623 6.10905C5.51089 6.05118 5.33712 6.09203 5.22245 6.21322L2.37956 9.23416C2.22045 9.40346 2.22556 9.67217 2.39134 9.83467C2.47178 9.91387 2.57556 9.95336 2.67934 9.95336Z" fill="#202020"/>
</svg>
