<svg width="8" height="10" viewBox="0 0 8 10" fill="none" xmlns="http://www.w3.org/2000/svg">
<path d="M7.63117 7.78311C7.30776 7.94718 6.58593 8.16993 5.8813 8.16993C5.11337 8.16993 4.39085 7.94718 3.90022 7.4103C3.66902 7.15886 3.50043 6.81473 3.39308 6.36855H7.24789V5.31212H3.17908C3.17908 5.2381 3.17908 5.16407 3.17908 5.07403C3.17908 4.90996 3.17908 4.76257 3.19353 4.61251H7.24858V3.55609H3.42474C3.53346 3.16927 3.68484 2.82713 3.91674 2.58904C4.39154 2.03748 5.06864 1.78471 5.79047 1.78471C6.46413 1.78471 7.11027 1.97879 7.50938 2.14219L7.93807 0.446178C7.38483 0.20875 6.55703 0 5.63496 0C4.17685 0 2.94788 0.564893 2.08911 1.53328C1.59849 2.06883 1.21452 2.75377 1.02942 3.55676H0V4.61251H0.860829C0.860829 4.76257 0.845003 4.91063 0.845003 5.05936C0.845003 5.14806 0.845003 5.23943 0.845003 5.31212H0V6.36921H0.99914C1.13745 7.15953 1.44366 7.79779 1.85859 8.30332C2.71942 9.40443 4.08464 10 5.60399 10C6.5873 10 7.47841 9.71722 8 9.43577L7.63117 7.78311Z" fill="#202020"/>
</svg>
