<svg width="18" height="23" viewBox="0 0 18 23" fill="none" xmlns="http://www.w3.org/2000/svg">
<path d="M17.1701 17.9012C16.4425 18.2785 14.8183 18.7908 13.2329 18.7908C11.5051 18.7908 9.87941 18.2785 8.7755 17.0437C8.25529 16.4654 7.87597 15.6739 7.63444 14.6477H16.3078V12.2179H7.15293C7.15293 12.0476 7.15293 11.8774 7.15293 11.6703C7.15293 11.2929 7.15293 10.9539 7.18545 10.6088H16.3093V8.179H7.70566C7.95028 7.28932 8.2909 6.5024 8.81266 5.95478C9.88096 4.68621 11.4044 4.10484 13.0286 4.10484C14.5443 4.10484 15.9981 4.55122 16.8961 4.92704L17.8607 1.02621C16.6159 0.480125 14.7533 0 12.6787 0C9.3979 0 6.63272 1.29925 4.7005 3.52654C3.59659 4.7583 2.73267 6.33367 2.31619 8.18054H0V10.6088H1.93687C1.93687 10.9539 1.90126 11.2945 1.90126 11.6365C1.90126 11.8405 1.90126 12.0507 1.90126 12.2179H0V14.6492H2.24806C2.55926 16.4669 3.24824 17.9349 4.18183 19.0976C6.1187 21.6302 9.19044 23 12.609 23C14.8214 23 16.8264 22.3496 18 21.7023L17.1701 17.9012Z" fill="#202020"/>
</svg>
