<svg width="295" height="142" viewBox="0 0 295 142" fill="none" xmlns="http://www.w3.org/2000/svg">
<path fill-rule="evenodd" clip-rule="evenodd" d="M12.9803 81.8784C12.9803 81.8784 65.4078 54.4736 98.9228 54.4736C132.438 54.4736 160.79 103.668 190.623 103.668C220.457 103.668 240.159 19.0327 279.242 19.0327C278.645 19.7571 279.242 114.663 279.242 114.663H12.9803V81.8784Z" fill="url(#paint0_linear)"/>
<path d="M12.9803 81.8784C12.9803 81.8784 65.4078 54.4736 98.9228 54.4736C132.438 54.4736 160.79 103.668 190.623 103.668C220.457 103.668 240.159 19.0327 279.242 19.0327" stroke="#1676FF" stroke-width="2"/>
<circle cx="14.5" cy="80.5" r="4.5" fill="white" stroke="#1676FF"/>
<circle cx="99.5" cy="54.5" r="4.5" fill="white" stroke="#1676FF"/>
<circle cx="188.5" cy="103.5" r="4.5" fill="white" stroke="#1676FF"/>
<circle cx="278.5" cy="19.5" r="4.5" fill="#1676FF" stroke="#1676FF"/>
<defs>
<linearGradient id="paint0_linear" x1="59.3857" y1="52.3666" x2="59.3857" y2="114.663" gradientUnits="userSpaceOnUse">
<stop stop-color="#1676FF"/>
<stop offset="1" stop-color="white" stop-opacity="0.1"/>
</linearGradient>
</defs>
</svg>
