<svg width="114" height="112" viewBox="0 0 114 112" fill="none" xmlns="http://www.w3.org/2000/svg">
<circle cx="57" cy="55" r="53.5" fill="white" stroke="#E5E9FA" stroke-width="3"/>
<mask id="mask0" mask-type="alpha" maskUnits="userSpaceOnUse" x="2" y="0" width="112" height="112">
<path fill-rule="evenodd" clip-rule="evenodd" d="M114 0H57V55H2V112H114V0Z" fill="white"/>
</mask>
<g mask="url(#mask0)">
<circle cx="57" cy="55" r="53.5" fill="white" stroke="#1676FF" stroke-width="3"/>
</g>
<circle cx="3.5" cy="54.5" r="3.5" fill="#1676FF"/>
<g clip-path="url(#clip0)">
<path d="M39.7773 68.7441C39.6895 69.4961 39.4111 70.0771 38.9424 70.4873C38.4769 70.8942 37.8568 71.0977 37.082 71.0977C36.2422 71.0977 35.5684 70.7965 35.0605 70.1943C34.556 69.5921 34.3037 68.7865 34.3037 67.7773V67.0938C34.3037 66.4329 34.4209 65.8519 34.6553 65.3506C34.8929 64.8493 35.2282 64.4652 35.6611 64.1982C36.0941 63.9281 36.5954 63.793 37.165 63.793C37.9202 63.793 38.5257 64.0046 38.9814 64.4277C39.4372 64.8477 39.7025 65.4303 39.7773 66.1758H38.835C38.7536 65.6094 38.5762 65.1992 38.3027 64.9453C38.0326 64.6914 37.6533 64.5645 37.165 64.5645C36.5661 64.5645 36.0957 64.7858 35.7539 65.2285C35.4154 65.6712 35.2461 66.3011 35.2461 67.1182V67.8066C35.2461 68.5781 35.4072 69.1917 35.7295 69.6475C36.0518 70.1032 36.5026 70.3311 37.082 70.3311C37.6029 70.3311 38.0016 70.2139 38.2783 69.9795C38.5583 69.7419 38.7438 69.3301 38.835 68.7441H39.7773ZM40.6807 68.3096C40.6807 67.792 40.7816 67.3265 40.9834 66.9131C41.1885 66.4997 41.4717 66.1807 41.833 65.9561C42.1976 65.7314 42.6126 65.6191 43.0781 65.6191C43.7975 65.6191 44.3786 65.8682 44.8213 66.3662C45.2673 66.8643 45.4902 67.5267 45.4902 68.3535V68.417C45.4902 68.9313 45.391 69.3936 45.1924 69.8037C44.9971 70.2106 44.7155 70.528 44.3477 70.7559C43.9831 70.9837 43.5632 71.0977 43.0879 71.0977C42.3717 71.0977 41.7907 70.8486 41.3447 70.3506C40.902 69.8525 40.6807 69.1934 40.6807 68.373V68.3096ZM41.5889 68.417C41.5889 69.0029 41.724 69.4733 41.9941 69.8281C42.2676 70.1829 42.6322 70.3604 43.0879 70.3604C43.5469 70.3604 43.9115 70.1813 44.1816 69.8232C44.4518 69.4619 44.5869 68.9574 44.5869 68.3096C44.5869 67.7301 44.4486 67.2614 44.1719 66.9033C43.8984 66.542 43.5339 66.3613 43.0781 66.3613C42.6322 66.3613 42.2725 66.5387 41.999 66.8936C41.7256 67.2484 41.5889 67.7562 41.5889 68.417ZM47.4727 65.7168L47.4971 66.3027C47.8844 65.847 48.4069 65.6191 49.0645 65.6191C49.8034 65.6191 50.3063 65.9023 50.5732 66.4688C50.749 66.2148 50.9769 66.0098 51.2568 65.8535C51.54 65.6973 51.8737 65.6191 52.2578 65.6191C53.4167 65.6191 54.0059 66.2327 54.0254 67.46V71H53.1221V67.5137C53.1221 67.1361 53.0358 66.8545 52.8633 66.6689C52.6908 66.4801 52.401 66.3857 51.9941 66.3857C51.6589 66.3857 51.3805 66.4867 51.1592 66.6885C50.9378 66.887 50.8092 67.1556 50.7734 67.4941V71H49.8652V67.5381C49.8652 66.7699 49.4893 66.3857 48.7373 66.3857C48.1449 66.3857 47.7396 66.638 47.5215 67.1426V71H46.6182V65.7168H47.4727ZM59.8555 68.417C59.8555 69.221 59.6715 69.8688 59.3037 70.3604C58.9359 70.8519 58.4378 71.0977 57.8096 71.0977C57.1683 71.0977 56.6637 70.8942 56.2959 70.4873V73.0312H55.3926V65.7168H56.2178L56.2617 66.3027C56.6296 65.847 57.1406 65.6191 57.7949 65.6191C58.4297 65.6191 58.931 65.8584 59.2988 66.3369C59.6699 66.8154 59.8555 67.4811 59.8555 68.334V68.417ZM58.9521 68.3145C58.9521 67.7188 58.8252 67.2484 58.5713 66.9033C58.3174 66.5583 57.9691 66.3857 57.5264 66.3857C56.9795 66.3857 56.5693 66.6283 56.2959 67.1133V69.6377C56.5661 70.1195 56.9795 70.3604 57.5361 70.3604C57.9691 70.3604 58.3125 70.1895 58.5664 69.8477C58.8236 69.5026 58.9521 68.9915 58.9521 68.3145ZM61.9893 71H61.0859V63.5H61.9893V71ZM65.6318 71.0977C64.9157 71.0977 64.333 70.8633 63.8838 70.3945C63.4346 69.9225 63.21 69.2926 63.21 68.5049V68.3389C63.21 67.8148 63.3092 67.3477 63.5078 66.9375C63.7096 66.5241 63.9896 66.2018 64.3477 65.9707C64.709 65.7363 65.0996 65.6191 65.5195 65.6191C66.2064 65.6191 66.7402 65.8454 67.1211 66.2979C67.502 66.7503 67.6924 67.3981 67.6924 68.2412V68.6172H64.1133C64.1263 69.138 64.2777 69.5596 64.5674 69.8818C64.8604 70.2008 65.2314 70.3604 65.6807 70.3604C65.9997 70.3604 66.2699 70.2952 66.4912 70.165C66.7126 70.0348 66.9062 69.8623 67.0723 69.6475L67.624 70.0771C67.1813 70.7575 66.5173 71.0977 65.6318 71.0977ZM65.5195 66.3613C65.1549 66.3613 64.849 66.4948 64.6016 66.7617C64.3542 67.0254 64.2012 67.3965 64.1426 67.875H66.7891V67.8066C66.763 67.3477 66.6393 66.9928 66.418 66.7422C66.1966 66.4883 65.8971 66.3613 65.5195 66.3613ZM69.9678 64.4375V65.7168H70.9541V66.415H69.9678V69.6914C69.9678 69.903 70.0117 70.0625 70.0996 70.1699C70.1875 70.2741 70.3372 70.3262 70.5488 70.3262C70.653 70.3262 70.7962 70.3066 70.9785 70.2676V71C70.7409 71.0651 70.5098 71.0977 70.2852 71.0977C69.8815 71.0977 69.5771 70.9756 69.3721 70.7314C69.167 70.4873 69.0645 70.1406 69.0645 69.6914V66.415H68.1025V65.7168H69.0645V64.4375H69.9678ZM74.2061 71.0977C73.4899 71.0977 72.9072 70.8633 72.458 70.3945C72.0088 69.9225 71.7842 69.2926 71.7842 68.5049V68.3389C71.7842 67.8148 71.8835 67.3477 72.082 66.9375C72.2839 66.5241 72.5638 66.2018 72.9219 65.9707C73.2832 65.7363 73.6738 65.6191 74.0938 65.6191C74.7806 65.6191 75.3145 65.8454 75.6953 66.2979C76.0762 66.7503 76.2666 67.3981 76.2666 68.2412V68.6172H72.6875C72.7005 69.138 72.8519 69.5596 73.1416 69.8818C73.4346 70.2008 73.8057 70.3604 74.2549 70.3604C74.5739 70.3604 74.8441 70.2952 75.0654 70.165C75.2868 70.0348 75.4805 69.8623 75.6465 69.6475L76.1982 70.0771C75.7555 70.7575 75.0915 71.0977 74.2061 71.0977ZM74.0938 66.3613C73.7292 66.3613 73.4232 66.4948 73.1758 66.7617C72.9284 67.0254 72.7754 67.3965 72.7168 67.875H75.3633V67.8066C75.3372 67.3477 75.2135 66.9928 74.9922 66.7422C74.7708 66.4883 74.4714 66.3613 74.0938 66.3613ZM77.0967 68.3145C77.0967 67.5039 77.2887 66.8529 77.6729 66.3613C78.057 65.8665 78.5599 65.6191 79.1816 65.6191C79.8001 65.6191 80.29 65.8307 80.6514 66.2539V63.5H81.5547V71H80.7246L80.6807 70.4336C80.3193 70.8763 79.8164 71.0977 79.1719 71.0977C78.5599 71.0977 78.0602 70.847 77.6729 70.3457C77.2887 69.8444 77.0967 69.1901 77.0967 68.3828V68.3145ZM78 68.417C78 69.016 78.1237 69.4847 78.3711 69.8232C78.6185 70.1618 78.9603 70.3311 79.3965 70.3311C79.9694 70.3311 80.3877 70.0739 80.6514 69.5596V67.1328C80.3812 66.6348 79.9661 66.3857 79.4062 66.3857C78.9635 66.3857 78.6185 66.5566 78.3711 66.8984C78.1237 67.2402 78 67.7464 78 68.417Z" fill="#7D86A9"/>
</g>
<defs>
<clipPath id="clip0">
<rect width="50" height="35" fill="white" transform="translate(33 37)"/>
</clipPath>
</defs>
</svg>
