<svg width="110" height="140" viewBox="0 0 110 140" fill="none" xmlns="http://www.w3.org/2000/svg">
<g clip-path="url(#clip0)">
<g filter="url(#filter0_d)">
<path fill-rule="evenodd" clip-rule="evenodd" d="M89.9285 0.7988C88.8634 -0.266266 87.1366 -0.266266 86.0715 0.7988L77.2721 9.59825H5C2.23858 9.59825 0 11.8368 0 14.5983V134.598C0 137.36 2.23858 139.598 5 139.598H105C107.761 139.598 110 137.36 110 134.598V14.5982C110 11.8368 107.761 9.59825 105 9.59825H98.7279L89.9285 0.7988Z" fill="white"/>
</g>
<path d="M0 45H110" stroke="#DDDDDD" stroke-width="0.5" stroke-linecap="square"/>
<path d="M0 76H110" stroke="#DDDDDD" stroke-width="0.5" stroke-linecap="square"/>
<path d="M0 105H110" stroke="#DDDDDD" stroke-width="0.5" stroke-linecap="square"/>
<path d="M43.5269 34V26.1797H45.7344C46.4147 26.1797 47.0163 26.3301 47.5391 26.6309C48.0618 26.9316 48.4647 27.3595 48.7476 27.9146C49.034 28.4696 49.179 29.1069 49.1826 29.8267V30.3262C49.1826 31.0638 49.0394 31.7101 48.7529 32.2651C48.4701 32.8201 48.0636 33.2463 47.5337 33.5435C47.0073 33.8407 46.3932 33.9928 45.6914 34H43.5269ZM44.5581 27.0283V33.1567H45.6431C46.438 33.1567 47.0557 32.9097 47.4961 32.4155C47.9401 31.9214 48.1621 31.2178 48.1621 30.3047V29.8481C48.1621 28.9601 47.9526 28.2708 47.5337 27.7803C47.1183 27.2861 46.5275 27.0355 45.7612 27.0283H44.5581ZM54.1777 34C54.1204 33.8854 54.0739 33.6813 54.0381 33.3877C53.5762 33.8675 53.0247 34.1074 52.3838 34.1074C51.8109 34.1074 51.34 33.9463 50.9712 33.624C50.606 33.2982 50.4233 32.8864 50.4233 32.3887C50.4233 31.7835 50.6525 31.3145 51.1108 30.9814C51.5728 30.6449 52.2209 30.4766 53.0552 30.4766H54.022V30.02C54.022 29.6727 53.9181 29.397 53.7104 29.1929C53.5028 28.9852 53.1966 28.8813 52.792 28.8813C52.4375 28.8813 52.1403 28.9709 51.9004 29.1499C51.6605 29.3289 51.5405 29.5456 51.5405 29.7998H50.5415C50.5415 29.5098 50.6436 29.2305 50.8477 28.9619C51.0553 28.6898 51.3346 28.4749 51.6855 28.3174C52.04 28.1598 52.4285 28.0811 52.8511 28.0811C53.5207 28.0811 54.0452 28.2493 54.4248 28.5859C54.8044 28.9189 55.0013 29.3791 55.0156 29.9663V32.6411C55.0156 33.1746 55.0837 33.599 55.2197 33.9141V34H54.1777ZM52.5288 33.2427C52.8403 33.2427 53.1357 33.1621 53.415 33.001C53.6943 32.8398 53.8966 32.6304 54.022 32.3726V31.1802H53.2432C52.0257 31.1802 51.417 31.5365 51.417 32.249C51.417 32.5605 51.5208 32.804 51.7285 32.9795C51.9362 33.1549 52.203 33.2427 52.5288 33.2427ZM57.6528 34H56.6592V28.1885H57.6528V34ZM56.5786 26.647C56.5786 26.4858 56.627 26.3498 56.7236 26.2388C56.8239 26.1278 56.9707 26.0723 57.1641 26.0723C57.3574 26.0723 57.5042 26.1278 57.6045 26.2388C57.7048 26.3498 57.7549 26.4858 57.7549 26.647C57.7549 26.8081 57.7048 26.9424 57.6045 27.0498C57.5042 27.1572 57.3574 27.2109 57.1641 27.2109C56.9707 27.2109 56.8239 27.1572 56.7236 27.0498C56.627 26.9424 56.5786 26.8081 56.5786 26.647ZM60.3276 34H59.334V25.75H60.3276V34ZM63.8242 32.5444L65.1777 28.1885H66.2412L63.9048 34.897C63.5431 35.8638 62.9684 36.3472 62.1807 36.3472L61.9927 36.3311L61.6221 36.2612V35.4556L61.8906 35.4771C62.2272 35.4771 62.4886 35.409 62.6748 35.2729C62.8646 35.1369 63.0203 34.888 63.1421 34.5264L63.3623 33.9355L61.2891 28.1885H62.374L63.8242 32.5444Z" fill="#7D86A9"/>
<path d="M41.2349 61.5347L41.3853 62.5659L41.6055 61.6367L43.1523 56.1797H44.0225L45.5317 61.6367L45.7466 62.582L45.9131 61.5293L47.127 56.1797H48.1636L46.2676 64H45.3276L43.7163 58.3013L43.5928 57.7051L43.4692 58.3013L41.7988 64H40.8589L38.9683 56.1797H39.9995L41.2349 61.5347ZM51.397 64.1074C50.6092 64.1074 49.9683 63.8496 49.4741 63.334C48.98 62.8148 48.7329 62.1219 48.7329 61.2554V61.0728C48.7329 60.4963 48.8421 59.9824 49.0605 59.5312C49.2826 59.0765 49.5905 58.722 49.9844 58.4678C50.3818 58.21 50.8115 58.0811 51.2734 58.0811C52.029 58.0811 52.6162 58.3299 53.0352 58.8276C53.4541 59.3254 53.6636 60.0379 53.6636 60.9653V61.3789H49.7266C49.7409 61.9518 49.9074 62.4155 50.2261 62.77C50.5483 63.1209 50.9565 63.2964 51.4507 63.2964C51.8016 63.2964 52.0988 63.2248 52.3423 63.0815C52.5858 62.9383 52.7988 62.7485 52.9814 62.5122L53.5884 62.9849C53.1014 63.7332 52.3709 64.1074 51.397 64.1074ZM51.2734 58.8975C50.8724 58.8975 50.5358 59.0443 50.2637 59.3379C49.9915 59.6279 49.8232 60.0361 49.7588 60.5625H52.6699V60.4873C52.6413 59.9824 52.5052 59.5921 52.2617 59.3164C52.0182 59.0371 51.6888 58.8975 51.2734 58.8975ZM57.23 64.1074C56.4422 64.1074 55.8013 63.8496 55.3071 63.334C54.813 62.8148 54.5659 62.1219 54.5659 61.2554V61.0728C54.5659 60.4963 54.6751 59.9824 54.8936 59.5312C55.1156 59.0765 55.4235 58.722 55.8174 58.4678C56.2148 58.21 56.6445 58.0811 57.1064 58.0811C57.862 58.0811 58.4492 58.3299 58.8682 58.8276C59.2871 59.3254 59.4966 60.0379 59.4966 60.9653V61.3789H55.5596C55.5739 61.9518 55.7404 62.4155 56.0591 62.77C56.3813 63.1209 56.7896 63.2964 57.2837 63.2964C57.6346 63.2964 57.9318 63.2248 58.1753 63.0815C58.4188 62.9383 58.6318 62.7485 58.8145 62.5122L59.4214 62.9849C58.9344 63.7332 58.2039 64.1074 57.23 64.1074ZM57.1064 58.8975C56.7054 58.8975 56.3688 59.0443 56.0967 59.3379C55.8245 59.6279 55.6562 60.0361 55.5918 60.5625H58.5029V60.4873C58.4743 59.9824 58.3382 59.5921 58.0947 59.3164C57.8512 59.0371 57.5218 58.8975 57.1064 58.8975ZM62.2734 61.3091L61.6504 61.959V64H60.6567V55.75H61.6504V60.7397L62.1821 60.1006L63.9922 58.1885H65.2007L62.9395 60.6162L65.4639 64H64.2983L62.2734 61.3091ZM67.3062 64H66.3125V55.75H67.3062V64ZM70.8027 62.5444L72.1562 58.1885H73.2197L70.8833 64.897C70.5216 65.8638 69.9469 66.3472 69.1592 66.3472L68.9712 66.3311L68.6006 66.2612V65.4556L68.8691 65.4771C69.2057 65.4771 69.4671 65.409 69.6533 65.2729C69.8431 65.1369 69.9989 64.888 70.1206 64.5264L70.3408 63.9355L68.2676 58.1885H69.3525L70.8027 62.5444Z" fill="#7D86A9"/>
<path d="M37.6353 86.1797L39.644 91.8516L41.6421 86.1797H43.7583V94H42.1416V91.8623L42.3027 88.1724L40.1919 94H39.0854L36.98 88.1777L37.1411 91.8623V94H35.5298V86.1797H37.6353ZM44.8218 91.0405C44.8218 90.464 44.9328 89.9502 45.1548 89.499C45.3768 89.0479 45.6955 88.6987 46.1108 88.4517C46.5298 88.2046 47.015 88.0811 47.5664 88.0811C48.3506 88.0811 48.9897 88.321 49.4839 88.8008C49.9816 89.2806 50.2591 89.9323 50.3164 90.7559L50.3271 91.1533C50.3271 92.0449 50.0783 92.7611 49.5806 93.3018C49.0828 93.8389 48.415 94.1074 47.5771 94.1074C46.7393 94.1074 46.0697 93.8389 45.5684 93.3018C45.0706 92.7646 44.8218 92.0342 44.8218 91.1104V91.0405ZM46.374 91.1533C46.374 91.7048 46.4779 92.1273 46.6855 92.4209C46.8932 92.7109 47.1904 92.856 47.5771 92.856C47.9531 92.856 48.2467 92.7127 48.458 92.4263C48.6693 92.1362 48.7749 91.6743 48.7749 91.0405C48.7749 90.4998 48.6693 90.0809 48.458 89.7837C48.2467 89.4865 47.9495 89.3379 47.5664 89.3379C47.1868 89.3379 46.8932 89.4865 46.6855 89.7837C46.4779 90.0773 46.374 90.5339 46.374 91.1533ZM52.7119 88.1885L52.7603 88.8599C53.1756 88.3407 53.7324 88.0811 54.4307 88.0811C55.0465 88.0811 55.5049 88.2619 55.8057 88.6235C56.1064 88.9852 56.2604 89.5259 56.2676 90.2456V94H54.7153V90.2832C54.7153 89.9538 54.6437 89.7157 54.5005 89.5688C54.3573 89.4185 54.1191 89.3433 53.7861 89.3433C53.3493 89.3433 53.0216 89.5295 52.8032 89.9019V94H51.251V88.1885H52.7119ZM59.3076 86.7598V88.1885H60.3013V89.3271H59.3076V92.2275C59.3076 92.4424 59.3488 92.5964 59.4312 92.6895C59.5135 92.7826 59.6711 92.8291 59.9038 92.8291C60.0757 92.8291 60.2279 92.8166 60.3604 92.7915V93.9678C60.056 94.0609 59.7427 94.1074 59.4204 94.1074C58.3319 94.1074 57.7769 93.5578 57.7554 92.4585V89.3271H56.9067V88.1885H57.7554V86.7598H59.3076ZM62.6807 88.8223C63.0924 88.3281 63.6099 88.0811 64.2329 88.0811C65.4933 88.0811 66.1325 88.8133 66.1504 90.2778V94H64.5981V90.3208C64.5981 89.9878 64.5265 89.7425 64.3833 89.585C64.2401 89.4238 64.002 89.3433 63.6689 89.3433C63.2142 89.3433 62.8848 89.5187 62.6807 89.8696V94H61.1284V85.75H62.6807V88.8223ZM68.9595 94H67.4019V85.75H68.9595V94ZM72.4131 91.8032L73.4873 88.1885H75.1523L72.8159 94.9023L72.687 95.2085C72.3397 95.9676 71.7668 96.3472 70.9683 96.3472C70.7427 96.3472 70.5135 96.3132 70.2808 96.2451V95.0688L70.5171 95.0742C70.8107 95.0742 71.0291 95.0295 71.1724 94.9399C71.3192 94.8504 71.4338 94.7018 71.5161 94.4941L71.6987 94.0161L69.6631 88.1885H71.3335L72.4131 91.8032Z" fill="#1676FF"/>
<path d="M43.4521 120.106L45.4932 116.18H46.6641L43.9678 121.083V124H42.9365V121.083L40.2402 116.18H41.4219L43.4521 120.106ZM49.5752 124.107C48.7874 124.107 48.1465 123.85 47.6523 123.334C47.1582 122.815 46.9111 122.122 46.9111 121.255V121.073C46.9111 120.496 47.0203 119.982 47.2388 119.531C47.4608 119.076 47.7687 118.722 48.1626 118.468C48.5601 118.21 48.9897 118.081 49.4517 118.081C50.2072 118.081 50.7944 118.33 51.2134 118.828C51.6323 119.325 51.8418 120.038 51.8418 120.965V121.379H47.9048C47.9191 121.952 48.0856 122.416 48.4043 122.77C48.7266 123.121 49.1348 123.296 49.6289 123.296C49.9798 123.296 50.277 123.225 50.5205 123.082C50.764 122.938 50.9771 122.749 51.1597 122.512L51.7666 122.985C51.2796 123.733 50.5492 124.107 49.5752 124.107ZM49.4517 118.897C49.0506 118.897 48.714 119.044 48.4419 119.338C48.1698 119.628 48.0015 120.036 47.937 120.562H50.8481V120.487C50.8195 119.982 50.6834 119.592 50.4399 119.316C50.1965 119.037 49.867 118.897 49.4517 118.897ZM56.5845 124C56.5272 123.885 56.4806 123.681 56.4448 123.388C55.9829 123.868 55.4315 124.107 54.7905 124.107C54.2176 124.107 53.7467 123.946 53.3779 123.624C53.0127 123.298 52.8301 122.886 52.8301 122.389C52.8301 121.784 53.0592 121.314 53.5176 120.981C53.9795 120.645 54.6276 120.477 55.4619 120.477H56.4287V120.02C56.4287 119.673 56.3249 119.397 56.1172 119.193C55.9095 118.985 55.6034 118.881 55.1987 118.881C54.8442 118.881 54.547 118.971 54.3071 119.15C54.0672 119.329 53.9473 119.546 53.9473 119.8H52.9482C52.9482 119.51 53.0503 119.23 53.2544 118.962C53.4621 118.69 53.7414 118.475 54.0923 118.317C54.4468 118.16 54.8353 118.081 55.2578 118.081C55.9274 118.081 56.452 118.249 56.8315 118.586C57.2111 118.919 57.408 119.379 57.4224 119.966V122.641C57.4224 123.175 57.4904 123.599 57.6265 123.914V124H56.5845ZM54.9355 123.243C55.2471 123.243 55.5425 123.162 55.8218 123.001C56.1011 122.84 56.3034 122.63 56.4287 122.373V121.18H55.6499C54.4325 121.18 53.8237 121.536 53.8237 122.249C53.8237 122.561 53.9276 122.804 54.1353 122.979C54.3429 123.155 54.6097 123.243 54.9355 123.243ZM61.7891 119.08C61.6387 119.055 61.4757 119.042 61.3003 119.042C60.6486 119.042 60.2064 119.32 59.9736 119.875V124H58.98V118.188H59.9468L59.9629 118.86C60.2887 118.341 60.7507 118.081 61.3486 118.081C61.542 118.081 61.6888 118.106 61.7891 118.156V119.08ZM63.7871 124H62.7935V115.75H63.7871V124ZM67.2837 122.544L68.6372 118.188H69.7007L67.3643 124.897C67.0026 125.864 66.4279 126.347 65.6401 126.347L65.4521 126.331L65.0815 126.261V125.456L65.3501 125.477C65.6867 125.477 65.9481 125.409 66.1343 125.273C66.3241 125.137 66.4798 124.888 66.6016 124.526L66.8218 123.936L64.7485 118.188H65.8335L67.2837 122.544Z" fill="#7D86A9"/>
</g>
<defs>
<filter id="filter0_d" x="-10" y="-8" width="130" height="159.598" filterUnits="userSpaceOnUse" color-interpolation-filters="sRGB">
<feFlood flood-opacity="0" result="BackgroundImageFix"/>
<feColorMatrix in="SourceAlpha" type="matrix" values="0 0 0 0 0 0 0 0 0 0 0 0 0 0 0 0 0 0 127 0"/>
<feOffset dy="2"/>
<feGaussianBlur stdDeviation="5"/>
<feColorMatrix type="matrix" values="0 0 0 0 0 0 0 0 0 0 0 0 0 0 0 0 0 0 0.1 0"/>
<feBlend mode="normal" in2="BackgroundImageFix" result="effect1_dropShadow"/>
<feBlend mode="normal" in="SourceGraphic" in2="effect1_dropShadow" result="shape"/>
</filter>
<clipPath id="clip0">
<rect width="110" height="140" fill="white"/>
</clipPath>
</defs>
</svg>
