<svg width="12" height="12" viewBox="0 0 12 12" fill="none" xmlns="http://www.w3.org/2000/svg">
<path d="M3.74556 9.59298H0.416247C0.294803 9.59298 0.195179 9.61168 0.117102 9.64926C0.0392519 9.68669 0.00012207 9.73459 0.00012207 9.79285V10.9919C0.00012207 11.0504 0.0390697 11.0981 0.117102 11.1357C0.195225 11.1731 0.294803 11.1918 0.416247 11.1918H3.74556C3.86701 11.1918 3.96677 11.1731 4.04453 11.1357C4.12279 11.0981 4.16128 11.0504 4.16128 10.9919V9.79285C4.16128 9.73459 4.12274 9.68667 4.04453 9.64926C3.96677 9.6117 3.86701 9.59298 3.74556 9.59298Z" fill="white"/>
<path d="M6.2426 6.39542H0.416125C0.294681 6.39542 0.195057 6.41412 0.11698 6.45155C0.0390843 6.48898 0 6.53689 0 6.59512V7.79437C0 7.8526 0.0389476 7.90053 0.11698 7.93794C0.195057 7.97536 0.294681 7.99407 0.416125 7.99407H6.2426C6.36404 7.99407 6.46376 7.97536 6.54156 7.93794C6.61969 7.90051 6.65877 7.8526 6.65877 7.79437V6.59512C6.65877 6.53689 6.61969 6.48896 6.54156 6.45155C6.4638 6.41415 6.36404 6.39542 6.2426 6.39542Z" fill="white"/>
<path d="M11.536 0.056175C11.4579 0.0187906 11.3583 0 11.2368 0H0.416247C0.294803 0 0.195179 0.0187031 0.117102 0.056175C0.0392519 0.0936906 0.00012207 0.141597 0.00012207 0.199828V1.39897C0.00012207 1.45729 0.0390697 1.50513 0.117102 1.54262C0.195225 1.58001 0.294803 1.5988 0.416247 1.5988H11.2368C11.3583 1.5988 11.4579 1.5801 11.536 1.54262C11.6139 1.50513 11.6528 1.45729 11.6528 1.39897V0.19985C11.653 0.141597 11.6139 0.0936031 11.536 0.056175Z" fill="white"/>
<path d="M8.7398 3.19771H0.416125C0.294681 3.19771 0.195057 3.21641 0.11698 3.25393C0.0390843 3.2914 0 3.33924 0 3.39758V4.59668C0 4.65502 0.0389476 4.70286 0.11698 4.74033C0.195057 4.77776 0.294681 4.79655 0.416125 4.79655H8.7398C8.86111 4.79655 8.96087 4.77785 9.03909 4.74033C9.11689 4.70286 9.15584 4.65502 9.15584 4.59668V3.39758C9.15584 3.33924 9.11689 3.29131 9.03909 3.25393C8.96069 3.2165 8.86093 3.19771 8.7398 3.19771Z" fill="white"/>
</svg>
