<svg width="19" height="22" viewBox="0 0 19 22" fill="none" xmlns="http://www.w3.org/2000/svg">
<path d="M17.908 18.5561L16.3676 15.9326C15.6561 14.7217 15.2802 13.3348 15.2802 11.9231V9.625C15.2802 6.72375 13.3853 4.26985 10.7942 3.47875V1.83335C10.7942 0.82225 9.98937 0 8.99975 0C8.01013 0 7.20535 0.82225 7.20535 1.83335V3.47875C4.61427 4.26985 2.71939 6.72375 2.71939 9.625V11.9231C2.71939 13.3348 2.34345 14.7207 1.63287 15.9317L0.0924026 18.5552C0.00896331 18.6973 0.0071549 18.8733 0.0870194 19.0172C0.166884 19.1611 0.314921 19.25 0.476417 19.25H17.5231C17.6846 19.25 17.8335 19.1611 17.9134 19.0181C17.9933 18.8751 17.9906 18.6972 17.908 18.5561Z" fill="white"/>
<path d="M6.1745 20.1666C6.68052 21.2465 7.75177 22 8.99974 22C10.2477 22 11.319 21.2465 11.825 20.1666H6.1745V20.1666Z" fill="white"/>
<circle cx="15.5001" cy="6.5" r="3.5" fill="#F6AE3F"/>
</svg>
