<svg width="25" height="25" viewBox="0 0 25 25" fill="none" xmlns="http://www.w3.org/2000/svg">
<path fill-rule="evenodd" clip-rule="evenodd" d="M0 12.4997C0 5.59654 5.59643 0 12.4999 0C19.4032 0 25 5.59629 25 12.4997C25 19.403 19.4032 25 12.4998 25C5.59643 25 0 19.4028 0 12.4997ZM5.94513 12.9688C4.69161 13.5469 3 14.3269 3 17H6.75582C7.49287 16.0547 8.51451 15.5824 9.25156 15.2426C9.39193 15.178 9.55518 15.1026 9.70195 15.0286C8.78796 14.218 8.23122 12.9421 8.23122 11.5544C8.23122 9.53866 9.40849 7.84299 11 7.34603C10.6038 5.98005 9.54223 5 8.29116 5C6.70236 5 5.41407 6.57788 5.41407 8.52397C5.41407 10.0013 6.15669 11.2641 7.20867 11.7882L7.12299 12.2383C6.90439 12.5265 6.462 12.7305 5.94513 12.9688ZM12.5391 20V19.9998H12.461H7C7 17.3268 8.75838 16.5469 10.0614 15.969C10.5987 15.7307 11.0586 15.5267 11.2859 15.2385L11.375 14.7883C10.2814 14.2642 9.50945 13.0014 9.50945 11.524C9.50945 9.57791 10.8486 8 12.5002 8C14.1518 8 15.491 9.57791 15.491 11.524C15.491 12.9887 14.7327 14.244 13.6538 14.776L13.7552 15.2878C13.9942 15.5507 14.4319 15.7448 14.9384 15.9694C16.2415 16.5473 18 17.3271 18 20H12.5391ZM18.2432 16.9998V17H22C22 14.3267 20.3081 13.5469 19.0544 12.969C18.5672 12.7445 18.1462 12.5504 17.9163 12.2876L17.8187 11.7758C18.8568 11.2437 19.5862 9.98857 19.5862 8.52397C19.5862 6.57788 18.298 5 16.709 5C15.4576 5 14.396 5.98005 14 7.34628C15.5912 7.84339 16.7681 9.53874 16.7681 11.5542C16.7681 12.9388 16.2107 14.2174 15.2975 15.0291C15.4412 15.1016 15.602 15.1758 15.7471 15.2427C16.4841 15.5825 17.5058 16.0547 18.2432 16.9998Z" fill="#202020"/>
</svg>
