<svg width="20" height="17" viewBox="0 0 20 17" fill="none" xmlns="http://www.w3.org/2000/svg">
<path fill-rule="evenodd" clip-rule="evenodd" d="M0.0371094 16.6125V0H19.9189V16.6125H0.0371094ZM1.32822 15.2944H18.6278V1.31858H1.32822V15.2944Z" fill="#7D86A9"/>
<path d="M5.69045 7.80371L3.36823 10.2716V14.4359C3.36823 14.553 3.46134 14.6483 3.57623 14.6483H6.39578C6.51067 14.6483 6.60378 14.5532 6.60378 14.4359V8.04791L5.95356 7.80371H5.69045Z" fill="#7D86A9"/>
<path d="M11.4333 9.73914H8.614C8.49889 9.73914 8.40578 9.83423 8.40578 9.95156V14.4356C8.40578 14.553 8.49889 14.6483 8.614 14.6483H11.4333C11.5482 14.6483 11.6413 14.5532 11.6413 14.4356V9.95133C11.6413 9.83423 11.5482 9.73914 11.4333 9.73914Z" fill="#7D86A9"/>
<path d="M15.5316 5.17112L15.0193 4.73401L13.1662 6.79858V14.4357C13.1662 14.5528 13.2593 14.6481 13.3745 14.6481H16.194C16.3089 14.6481 16.402 14.553 16.402 14.4357V5.24147C16.3905 5.24828 16.38 5.25668 16.3682 5.2628C16.2605 5.32045 16.1393 5.35086 16.0176 5.35086C15.8396 5.35109 15.6676 5.28731 15.5316 5.17112Z" fill="#7D86A9"/>
<path d="M2.67934 9.9534C2.78845 9.9534 2.89756 9.9096 2.97934 9.8229L5.63334 7.00237L10.2771 8.74739C10.4358 8.80662 10.6131 8.76282 10.7276 8.63573L15.0038 3.87181L16.0042 4.72605C16.0533 4.76781 16.1216 4.77507 16.178 4.74512C16.2342 4.71493 16.2676 4.65343 16.2618 4.58829L16.0449 2.11181C16.0373 2.0233 15.9607 1.95817 15.8742 1.96611L13.4491 2.18716C13.3858 2.19283 13.332 2.23732 13.3129 2.29927C13.3069 2.3197 13.3049 2.3408 13.3067 2.36146C13.3104 2.40322 13.3298 2.44271 13.3625 2.47039L14.3651 3.32622L10.3031 7.85161L5.66623 6.10909C5.51089 6.05122 5.33712 6.09207 5.22245 6.21326L2.37956 9.23419C2.22045 9.4035 2.22556 9.67221 2.39134 9.83471C2.47178 9.91391 2.57556 9.9534 2.67934 9.9534Z" fill="#7D86A9"/>
</svg>
