<svg width="20" height="20" viewBox="0 0 20 20" fill="none" xmlns="http://www.w3.org/2000/svg">
<path fill-rule="evenodd" clip-rule="evenodd" d="M0 9.99973C0 4.47723 4.47714 0 9.9999 0C15.5226 0 20 4.47703 20 9.99973C20 15.5224 15.5225 20 9.99983 20C4.47714 20 0 15.5222 0 9.99973ZM5.11007 10.4309C4.09086 10.9092 2.71545 11.5546 2.71545 13.7665H5.76923C6.36851 12.9843 7.19919 12.5935 7.79846 12.3123C7.9126 12.2589 8.04533 12.1965 8.16467 12.1353C7.42152 11.4645 6.96885 10.4088 6.96885 9.26053C6.96885 7.59265 7.92607 6.18957 9.22009 5.77837C8.89795 4.6481 8.0348 3.83716 7.01758 3.83716C5.72576 3.83716 4.67828 5.14277 4.67828 6.75305C4.67828 7.97545 5.28209 9.02033 6.13744 9.454L6.06777 9.82647C5.89003 10.0649 5.53033 10.2337 5.11007 10.4309ZM10.0303 16.2738V16.2736H9.96923H5.69776C5.69776 14.0619 7.07313 13.4166 8.09234 12.9384C8.51262 12.7412 8.87233 12.5724 9.05008 12.3339L9.11975 11.9615C8.2644 11.5278 7.66059 10.4829 7.66059 9.26053C7.66059 7.65025 8.70808 6.34464 9.9999 6.34464C11.2917 6.34464 12.3392 7.65025 12.3392 9.26053C12.3392 10.4724 11.7461 11.5111 10.9022 11.9513L10.9815 12.3747C11.1685 12.5923 11.5108 12.7529 11.907 12.9387C12.9263 13.4169 14.3017 14.0621 14.3017 16.2738H10.0303ZM14.2303 13.7665V13.7666H17.2848C17.2848 11.5546 15.9092 10.9094 14.8899 10.4312C14.4938 10.2454 14.1515 10.0848 13.9646 9.8674L13.8852 9.44393C14.7292 9.00359 15.3223 7.96505 15.3223 6.75318C15.3223 5.1429 14.2749 3.83729 12.9829 3.83729C11.9655 3.83729 11.1024 4.64823 10.7804 5.77871C12.0741 6.19004 13.031 7.59285 13.031 9.26053C13.031 10.4062 12.5778 11.4642 11.8353 12.1358C11.9522 12.1958 12.0829 12.2572 12.2009 12.3125C12.8001 12.5937 13.6308 12.9844 14.2303 13.7665Z" fill="#202020"/>
</svg>
