<svg width="18" height="17" viewBox="0 0 18 17" fill="none" xmlns="http://www.w3.org/2000/svg">
<path fill-rule="evenodd" clip-rule="evenodd" d="M16.3887 3.26138H10.3865L12.7332 0.99677C12.9615 0.776523 12.9616 0.419297 12.7333 0.198899C12.5052 -0.0214243 12.1352 -0.0214995 11.9069 0.198823L8.97545 3.02774L6.04317 0.197018C5.81494 -0.0233049 5.44488 -0.0233801 5.21673 0.196943C4.98842 0.417266 4.98842 0.774492 5.21665 0.994739L7.5646 3.26138H1.56031C0.699896 3.26138 0 3.93709 0 4.76761V15.4881C0 16.3192 0.699896 16.9953 1.56031 16.9953H16.3888C17.2498 16.9953 17.9501 16.3192 17.9501 15.4881V4.76761C17.9501 3.93709 17.2497 3.26138 16.3887 3.26138ZM7.48208 13.5702V13.0969C7.48208 12.6823 7.8314 12.3451 8.26083 12.3451H9.68946C10.1188 12.3451 10.4681 12.6823 10.4681 13.0969V13.5702H7.48208ZM8.26083 10.9931H9.68945C10.7632 10.9931 11.6369 11.9168 11.6368 13.052V13.5702H16.7812V5.03174H1.16883V13.5702H6.31325V13.052C6.31325 11.9168 7.18691 10.9931 8.26083 10.9931Z" fill="#7D86A9"/>
<path fill-rule="evenodd" clip-rule="evenodd" d="M6.97675 9.1023C6.97675 8.0416 7.87059 7.17859 8.96937 7.17859C10.0681 7.17859 10.9619 8.0416 10.9618 9.1023C10.9618 10.1629 10.0681 11.0259 8.96937 11.0259C7.87067 11.0259 6.97675 10.163 6.97675 9.1023ZM8.14558 9.10237C8.14558 9.54084 8.51516 9.89761 8.96937 9.89761C9.42358 9.89761 9.79308 9.54084 9.79301 9.10237C9.79301 8.66376 9.4235 8.30698 8.96937 8.30698C8.51516 8.30698 8.14558 8.66376 8.14558 9.10237Z" fill="#7D86A9"/>
</svg>
