<svg width="15" height="15" viewBox="0 0 15 15" fill="none" xmlns="http://www.w3.org/2000/svg">
<path d="M5.42429 8.26093C5.42429 8.07335 5.26864 7.92139 5.07659 7.92139H3.86326C3.67143 7.92139 3.51575 8.07335 3.51575 8.26093V9.44682C3.51575 9.63464 3.67143 9.78666 3.86326 9.78666H5.07659C5.26864 9.78666 5.42429 9.63464 5.42429 9.44682V8.26093Z" fill="#7D86A9"/>
<path d="M8.45658 8.26093C8.45658 8.07335 8.3009 7.92139 8.10922 7.92139H6.89573C6.7039 7.92139 6.54822 8.07335 6.54822 8.26093V9.44682C6.54822 9.63464 6.7039 9.78666 6.89573 9.78666H8.10922C8.3009 9.78666 8.45658 9.63464 8.45658 9.44682V8.26093Z" fill="#7D86A9"/>
<path d="M11.489 8.26093C11.489 8.07335 11.3333 7.92139 11.1415 7.92139H9.92817C9.73612 7.92139 9.58047 8.07335 9.58047 8.26093V9.44682C9.58047 9.63464 9.73612 9.78666 9.92817 9.78666H11.1415C11.3333 9.78666 11.489 9.63464 11.489 9.44682V8.26093Z" fill="#7D86A9"/>
<path d="M5.42429 11.2255C5.42429 11.0376 5.26864 10.8857 5.07659 10.8857H3.86326C3.67143 10.8857 3.51575 11.0376 3.51575 11.2255V12.4111C3.51575 12.5988 3.67143 12.7508 3.86326 12.7508H5.07659C5.26864 12.7508 5.42429 12.5988 5.42429 12.4111V11.2255Z" fill="#7D86A9"/>
<path d="M8.45658 11.2255C8.45658 11.0376 8.3009 10.8857 8.10922 10.8857H6.89573C6.7039 10.8857 6.54822 11.0376 6.54822 11.2255V12.4111C6.54822 12.5988 6.7039 12.7508 6.89573 12.7508H8.10922C8.3009 12.7508 8.45658 12.5988 8.45658 12.4111V11.2255Z" fill="#7D86A9"/>
<path d="M11.489 11.2255C11.489 11.0376 11.3333 10.8857 11.1417 10.8857H9.92817C9.73612 10.8857 9.58047 11.0376 9.58047 11.2255V12.4111C9.58047 12.5988 9.73612 12.7508 9.92817 12.7508H11.1417C11.3333 12.7508 11.489 12.5988 11.489 12.4111V11.2255Z" fill="#7D86A9"/>
<path fill-rule="evenodd" clip-rule="evenodd" d="M13.6586 3.4785V1.66715C14.3905 1.68871 14.9919 2.28071 14.9919 3.00834V13.6237C14.9919 14.3638 14.3761 14.9739 13.6188 14.9739H1.38597C0.627595 14.9739 0.0129089 14.365 0.0129089 13.6237V3.00834C0.0129089 2.28071 0.614321 1.68871 1.34621 1.66715V3.4785C1.34621 4.29721 2.02564 4.95696 2.86303 4.95696H3.82012C4.65748 4.95696 5.34591 4.29721 5.34591 3.4785V1.66064H9.65888V3.4785C9.65888 4.29721 10.3473 4.95696 11.1848 4.95696H12.1417C12.9792 4.95696 13.6586 4.29721 13.6586 3.4785ZM12.6206 13.5429C12.9484 13.5429 13.2142 13.283 13.2142 12.9627L13.2141 7.47945C13.2141 7.15896 12.9484 6.89905 12.6205 6.89905H2.35809C2.03019 6.89905 1.76449 7.15896 1.76449 7.47945V12.9627C1.76449 13.283 2.03022 13.5429 2.35809 13.5429H12.6206Z" fill="#7D86A9"/>
<path d="M2.85968 3.98604H3.80618C4.09347 3.98604 4.32641 3.75868 4.32641 3.47785V0.508374C4.32641 0.227515 4.09347 0 3.80618 0H2.85968C2.57235 0 2.33945 0.227515 2.33945 0.508374V3.47785C2.33945 3.75868 2.57235 3.98604 2.85968 3.98604Z" fill="#7D86A9"/>
<path d="M11.1726 3.98604H12.1191C12.4062 3.98604 12.6392 3.75868 12.6392 3.47785V0.508374C12.6392 0.227515 12.4063 0 12.1191 0H11.1726C10.8854 0 10.6524 0.227515 10.6524 0.508374V3.47785C10.6524 3.75868 10.8854 3.98604 11.1726 3.98604Z" fill="#7D86A9"/>
</svg>
