<svg width="13" height="13" viewBox="0 0 13 13" fill="none" xmlns="http://www.w3.org/2000/svg">
<path fill-rule="evenodd" clip-rule="evenodd" d="M8.84808 7.68958L12.7568 11.6016C13.0741 11.919 13.0741 12.4342 12.7568 12.7516C12.5985 12.9103 12.3905 12.9899 12.1825 12.9899C11.9744 12.9899 11.7664 12.9103 11.6077 12.7516L7.69901 8.83964C6.90355 9.40592 5.93351 9.7424 4.88312 9.7424C2.19532 9.7424 0.0162201 7.56132 0.0162201 4.8712C0.0162201 2.18109 2.19532 0 4.88312 0C7.5709 0 9.75 2.18109 9.74998 4.8712C9.74998 5.92258 9.41386 6.89355 8.84808 7.68958ZM7.20743 7.19719L7.52642 6.74825C7.92007 6.19454 8.12809 5.54545 8.12773 4.8712C8.12773 3.08062 6.67226 1.62373 4.88312 1.62373C3.09398 1.62373 1.63853 3.08062 1.63853 4.8712C1.63853 6.66176 3.09398 8.11867 4.88312 8.11867C5.55698 8.11867 6.20558 7.91042 6.75872 7.51666L7.20743 7.19719Z" fill="#7D86A9"/>
</svg>
